<?xml version="1.0" encoding="UTF-8" standalone="no"?>
<svg xmlns:dc="http://purl.org/dc/elements/1.1/" xmlns:cc="http://creativecommons.org/ns#" xmlns:rdf="http://www.w3.org/1999/02/22-rdf-syntax-ns#" xmlns:svg="http://www.w3.org/2000/svg" xmlns="http://www.w3.org/2000/svg" id="svg42" version="1.1" style="overflow:visible" viewBox="-121.75 -116.75 217.25 217.25" height="869" width="869">
  <metadata id="metadata48">
    <rdf:RDF>
      <cc:Work rdf:about="">
        <dc:format>image/svg+xml</dc:format>
        <dc:type rdf:resource="http://purl.org/dc/dcmitype/StillImage"/>
      </cc:Work>
    </rdf:RDF>
  </metadata>
  <defs id="defs46"/>
  <rect id="rect2" fill-opacity="0" fill="rgb(0,0,0)" height="252" width="480" y="-126" x="-240"/>
  <svg id="svg40" version="1.1" y="-250" x="-250" viewBox="-250 -250 500 500" height="500" width="500" style="overflow:visible">
    <g style="fill:#ffffff;stroke-linejoin:round" id="g38">
      <path style="fill:#c79c78;fill-opacity:1;stroke:none;stroke-linecap:butt;stroke-linejoin:round" id="path4" d="m 5.8134,-55.5894 c -7.520821,2.485097 -16.51698,3.831155 -24.35382,12.76452 0.02862,0.271266 0.0504,0.543174 0.06319,0.815694 0.57261,12.601199 -27.0807,27.842159 -27.0807,27.842159 6.92754,13.67202 13.80438,27.428279 22.003079,38.98128 18.69396,1.150637 29.633819,-1.966932 27.89466,-16.16274 -2.663017,-3.463116 -4.42695,-6.64596 -4.763202,-9.27372 -1.846824,-14.43576 18.05382,-25.58472 18.05382,-35.36706 0,-3.72528 -5.28315,-11.4567 -11.817,-19.60014 z"/>
      <path style="fill:#ab8464;fill-opacity:1;stroke:none;stroke-linecap:butt;stroke-linejoin:round" id="path6" d="m -18.754801,-83.1606 -31.07136,10.232399 c 0,0 29.59242,13.89852 31.28274,30.10716 9.82878,-3.3537 17.7123,-7.81536 24.35382,-12.76452 -10.62312,-13.2408 -24.5652,-27.57504 -24.5652,-27.575039 z"/>
      <path style="fill:#ab8464;fill-opacity:1;stroke:none;stroke-linecap:butt;stroke-linejoin:round" id="path8" d="m 4.3392,8.650799 c -4.71972,8.138159 -11.89296,14.787959 -27.8946,16.16274 5.282016,7.442819 11.107619,13.97904 17.86572,18.96048 l 58.674839,6.01992 c 0,0 -35.51556,-24.06768 -48.64596,-41.1432 z"/>
      <path style="fill:none;stroke:#444444;stroke-width:6;stroke-linecap:butt;stroke-linejoin:round;stroke-opacity:1" id="path10" d="m -5.6886,43.777199 c -17.24814,-12.71412 -28.4784,-35.46186 -39.8688,-57.94182 0,0 27.65316,-15.24096 27.0807,-27.84216 -0.752244,-16.554781 -31.34592,-30.92286 -31.34592,-30.92286 l 31.07136,-10.231621 c 0,0 36.3822,37.391999 36.3822,47.1744 0,9.782401 -19.90056,20.9313 -18.05382,35.367059 1.993968,15.5856 53.40918,50.416859 53.40918,50.416859 z"/>
      <path style="fill:#60b54c;fill-opacity:1;stroke:none;stroke-linecap:butt;stroke-linejoin:round" id="path12" d="m 38.498399,-52.2858 c -17.85072,0 -32.96772,7.15914 -38.13942,17.04696 5.172492,9.294 20.28948,7.52196 38.13942,7.52196 17.85072,0 34.75056,0.34461 38.13942,-7.52196 -5.172114,-9.887701 -20.288701,-17.04696 -38.13942,-17.04696 z"/>
      <path style="fill:#58a545;fill-opacity:1;stroke:none;stroke-linecap:butt;stroke-linejoin:round" id="path14" d="m 0.359399,-35.2422 c -1.236762,2.36448 -1.911444,4.883742 -1.911444,7.49994 0,13.55688 17.93196,10.8291 40.05084,10.8291 22.11888,0 40.05084,2.728008 40.05084,-10.8291 0,-2.616186 -0.674754,-5.135448 -1.911444,-7.49994 -5.172486,6.43938 -20.28948,4.667778 -38.13942,4.667778 -17.85072,0 -32.967,1.771511 -38.13942,-4.667778 z"/>
      <path style="fill:#60b54c;fill-opacity:1;stroke:none;stroke-linecap:butt;stroke-linejoin:round" id="path16" d="m -35.154,-109.47522 c -27.74946,0 -45.45948,14.435759 -50.39868,27.6495 3.911051,13.602 26.40672,13.717139 50.39868,13.717139 24.12588,0 42.72732,1.094052 45.58284,-13.83756 C 6.301896,-95.290801 -9.02862,-109.47528 -35.154,-109.47528 Z"/>
      <path style="fill:#60b54c;fill-opacity:1;stroke:none;stroke-linecap:butt;stroke-linejoin:round" id="path18" d="m -64.7394,-30.719401 c -23.90322,0 -44.10618,7.629479 -50.7312,18.11544 6.98094,9.482159 26.8272,7.949279 50.7312,7.949279 23.90322,0 44.82006,0.818796 50.7312,-7.94928 -6.62484,-10.48596 -26.82792,-18.11544 -50.7312,-18.11544 z"/>
      <path style="fill:#58a545;fill-opacity:1;stroke:none;stroke-linecap:butt;stroke-linejoin:round" id="path20" d="m 10.4322,-81.9492 c -4.638396,12.43344 -21.45696,11.34006 -45.58284,11.34006 -23.99202,0 -44.7042,0.59799 -50.39868,-11.21964 -1.486734,3.977598 -1.830132,7.845479 -0.924126,11.17452 3.915641,14.38686 25.758239,13.70664 51.32244,13.70664 25.564201,0 42.93348,1.23453 46.28922,-13.70664 0.769686,-3.42639 0.521375,-7.32372 -0.706735,-11.29488 z"/>
      <path style="fill:#58a545;fill-opacity:1;stroke:none;stroke-linecap:butt;stroke-linejoin:round" id="path22" d="m -115.4706,-12.6072 c -1.4929,2.363046 -2.30224,4.870416 -2.30224,7.46904 0,14.1303 23.743744,11.28738 53.033044,11.28738 29.289299,0 53.03304,2.842692 53.03304,-11.28738 0,-2.59857 -0.80934,-5.106024 -2.302236,-7.46904 -6.62424,6.98448 -26.8272,5.095493 -50.7312,5.095493 -23.90322,0 -44.106958,1.888973 -50.731198,-5.095494 z"/>
      <path style="fill:none;stroke:#444444;stroke-width:6;stroke-linecap:butt;stroke-linejoin:round;stroke-opacity:1" id="path24" d="m -11.7066,-5.1348 c 0,14.1303 -23.74374,11.28738 -53.03304,11.28738 -29.2893,0 -53.03304,2.84268 -53.03304,-11.28738 0,-14.13006 23.74374,-25.58466 53.03304,-25.58466 29.289299,0 53.03304,11.454419 53.03304,25.58466 z"/>
      <path style="fill:none;stroke:#444444;stroke-width:6;stroke-linecap:butt;stroke-linejoin:round;stroke-opacity:1" id="path26" d="m 11.138999,-70.6464 c -3.35628,14.940719 -20.72424,13.70586 -46.28922,13.70586 -25.5642,0 -47.4078,0.681168 -51.32322,-13.70586 -3.915648,-14.38686 15.220859,-38.82402 51.32322,-38.82402 33.89976,0 49.64496,23.882579 46.28922,38.82402 z"/>
      <path style="fill:none;stroke:#444444;stroke-width:6;stroke-linecap:butt;stroke-linejoin:round;stroke-opacity:1" id="path28" d="m 78.5478,-27.739801 c 0,13.55688 -17.93118,10.82988 -40.050841,10.82988 -22.11894,0 -40.050841,2.72733 -40.050841,-10.829881 0,-13.557211 17.93118,-24.54702 40.05084,-24.54702 22.11894,0 40.05084,10.99014 40.05084,24.54702 z"/>
      <path style="fill:#60b54c;fill-opacity:1;stroke:none;stroke-linecap:butt;stroke-linejoin:round" id="path30" d="m 24.709799,29.1486 a 64.179,45.29922 0 0 0 -56.70774,24.144419 h 113.4078 a 64.179,45.29922 0 0 0 -56.70324,-24.14442 z"/>
      <path style="fill:#58a545;fill-opacity:1;stroke:none;stroke-linecap:butt;stroke-linejoin:round" id="path32" d="m 55.536599,34.769999 c -16.92168,12.5049 -42.75594,15.80382 -68.6946,18.51804 h 94.5642 a 64.179,45.29922 0 0 0 -25.87188,-18.51804 z"/>
      <path style="fill:none;stroke:#444444;stroke-width:6;stroke-linecap:butt;stroke-linejoin:round;stroke-opacity:1" id="path34" d="m 24.709799,29.1486 a 64.179,45.29922 0 0 0 -56.70774,24.144419 h 113.4078 a 64.179,45.29922 0 0 0 -56.70324,-24.14442 z"/>
      <path style="fill:#757575;fill-opacity:1;stroke:#444444;stroke-width:6;stroke-linecap:butt;stroke-linejoin:round;stroke-opacity:1" id="path36" d="m -44.7072,48.878999 3.826505,42.2313 h 20.06304 v -7.45332 h 89.155799 v 7.45332 h 20.06304 l 3.826505,-42.2313 h -136.938 z"/>
    </g>
  </svg>
</svg>